<svg width="28" height="32" viewBox="0 0 28 32" fill="none" xmlns="http://www.w3.org/2000/svg">
<path class="fogo" d="M23.4141 14.2914C22.9918 13.7914 22.4776 13.3581 22.0001 12.9247C20.7697 11.9247 19.3741 11.208 18.1988 10.158C15.4625 7.72459 14.8565 3.70781 16.6011 0.62439C14.8565 1.00773 13.3323 1.87443 12.0285 2.82445C7.27219 6.29122 5.39907 12.4081 7.63947 17.6582C7.71293 17.8249 7.78638 17.9916 7.78638 18.2082C7.78638 18.5749 7.51092 18.9082 7.14364 19.0416C6.72127 19.2083 6.28054 19.1082 5.93162 18.8416C5.8274 18.7623 5.74023 18.6663 5.67453 18.5582C3.5994 16.1748 3.26884 12.7581 4.66451 10.0247C1.59772 12.2914 -0.0734013 16.1248 0.165331 19.7416C0.275514 20.575 0.385698 21.4083 0.697886 22.2417C0.954982 23.2417 1.45081 24.2417 2.00173 25.1251C3.98504 28.0085 7.4191 30.0752 11.1103 30.4919C15.0402 30.9419 19.2455 30.2919 22.2572 27.8252C25.6178 25.0584 26.7931 20.625 25.0669 16.8249L24.8282 16.3915C24.4425 15.6248 23.4141 14.2914 23.4141 14.2914ZM17.6111 24.7917C17.0969 25.1918 16.2522 25.6251 15.5911 25.7918C13.5343 26.4585 11.4775 25.5251 10.2655 24.4251C12.4508 23.9584 13.7547 22.4917 14.1403 21.0083C14.4525 19.6749 13.8649 18.5749 13.6261 17.2915C13.4058 16.0582 13.4425 15.0081 13.9383 13.8581C14.2872 14.4915 14.6545 15.1248 15.0952 15.6248C16.5093 17.2915 18.7313 18.0249 19.2088 20.2916C19.2822 20.525 19.319 20.7583 19.319 21.0083C19.3741 22.375 18.713 23.8751 17.6111 24.7917Z"/>
</svg>
