<svg width="30" height="32" viewBox="0 0 30 32" fill="none" xmlns="http://www.w3.org/2000/svg">
<path d="M30 14.9988V29.9988C30 30.3304 29.8683 30.6483 29.6339 30.8827C29.3995 31.1171 29.0815 31.2488 28.75 31.2488H20C19.6685 31.2488 19.3505 31.1171 19.1161 30.8827C18.8817 30.6483 18.75 30.3304 18.75 29.9988V21.8738C18.75 21.7081 18.6842 21.5491 18.5669 21.4319C18.4497 21.3147 18.2908 21.2488 18.125 21.2488H11.875C11.7092 21.2488 11.5503 21.3147 11.4331 21.4319C11.3158 21.5491 11.25 21.7081 11.25 21.8738V29.9988C11.25 30.3304 11.1183 30.6483 10.8839 30.8827C10.6495 31.1171 10.3315 31.2488 10 31.2488H1.25C0.918479 31.2488 0.600537 31.1171 0.366117 30.8827C0.131696 30.6483 0 30.3304 0 29.9988V14.9988C0.000307327 14.3359 0.263901 13.7003 0.732812 13.2317L13.2328 0.731654C13.7016 0.263167 14.3372 0 15 0C15.6628 0 16.2984 0.263167 16.7672 0.731654L29.2672 13.2317C29.7361 13.7003 29.9997 14.3359 30 14.9988Z" fill="white"/>
</svg>
